<svg width="90" height="85" viewBox="0 0 90 85" fill="none" xmlns="http://www.w3.org/2000/svg">
<g clip-path="url(#clip0_35_61)">
<path d="M0 78.4611V6.53893C0 4.8047 0.729445 3.14149 2.02787 1.91521C3.32629 0.688921 5.08733 0 6.92357 0L83.0764 0C84.9127 0 86.6737 0.688921 87.9721 1.91521C89.2706 3.14149 90 4.8047 90 6.53893V78.4611C90 80.1953 89.2706 81.8585 87.9721 83.0848C86.6737 84.3111 84.9127 85 83.0764 85H62.3121V54.0054H67.2236C68.3437 54.0054 69.418 53.5851 70.2101 52.837C71.0022 52.089 71.4471 51.0744 71.4471 50.0164V44.9893C71.4488 44.465 71.3408 43.9456 71.1291 43.4609C70.9174 42.9762 70.6064 42.5358 70.2139 42.1651C69.8213 41.7944 69.3551 41.5006 68.8419 41.3007C68.3287 41.1008 67.7787 40.9988 67.2236 41.0004H62.5821V34.85C62.5821 29.3554 65.2179 29.3554 67.8471 29.3554H71.235C71.7928 29.3786 72.3491 29.2857 72.8646 29.0832C73.3801 28.8807 73.8421 28.5736 74.2179 28.1836C74.621 27.8212 74.94 27.3836 75.1547 26.8987C75.3694 26.4138 75.475 25.892 75.465 25.3664V20.5336C75.4997 19.4576 75.0814 18.4126 74.3018 17.6273C73.5222 16.8421 72.4448 16.3807 71.3057 16.3443H63.3471C61.0239 16.2612 58.7092 16.6555 56.5631 17.5C54.417 18.3446 52.4906 19.6191 50.9172 21.2356C49.3437 22.8522 48.1607 24.7721 47.4498 26.8627C46.739 28.9533 46.5173 31.1648 46.8 33.3443V40.9943H42.3643C41.8043 40.9862 41.2481 41.0835 40.7282 41.2803C40.2084 41.4772 39.7352 41.7697 39.3361 42.1409C38.9371 42.5121 38.6202 42.9546 38.404 43.4426C38.1877 43.9305 38.0764 44.4542 38.0764 44.9832V50.0225C38.0772 50.5515 38.1894 51.0751 38.4064 51.5627C38.6235 52.0504 38.941 52.4924 39.3407 52.863C39.7403 53.2337 40.214 53.5256 40.7342 53.7217C41.2544 53.9178 41.8107 54.0142 42.3707 54.0054H46.8V85H6.92357C5.08733 85 3.32629 84.3111 2.02787 83.0848C0.729445 81.8585 0 80.1953 0 78.4611Z" fill="#10409A"/>
</g>
<defs>
<clipPath id="clip0_35_61">
<rect width="90" height="85" fill="white"/>
</clipPath>
</defs>
</svg>
