<svg width="90" height="84" viewBox="0 0 90 84" fill="none" xmlns="http://www.w3.org/2000/svg">
<path fill-rule="evenodd" clip-rule="evenodd" d="M16.3636 0C12.0237 0 7.86158 1.60909 4.7928 4.47328C1.72402 7.33747 0 11.2221 0 15.2727V68.7273C0 72.7779 1.72402 76.6625 4.7928 79.5267C7.86158 82.3909 12.0237 84 16.3636 84H73.6364C77.9763 84 82.1384 82.3909 85.2072 79.5267C88.276 76.6625 90 72.7779 90 68.7273V15.2727C90 11.2221 88.276 7.33747 85.2072 4.47328C82.1384 1.60909 77.9763 0 73.6364 0H16.3636ZM77.7273 42C77.7273 50.1012 74.2792 57.8705 68.1417 63.5989C62.0041 69.3273 53.6798 72.5455 45 72.5455C36.3202 72.5455 27.9959 69.3273 21.8583 63.5989C15.7208 57.8705 12.2727 50.1012 12.2727 42C12.2727 33.8988 15.7208 26.1295 21.8583 20.4011C27.9959 14.6727 36.3202 11.4545 45 11.4545C53.6798 11.4545 62.0041 14.6727 68.1417 20.4011C74.2792 26.1295 77.7273 33.8988 77.7273 42ZM22.6309 41.0989C22.6309 40.8164 22.8314 40.5453 23.1136 40.4498L59.7805 27.4031C59.9075 27.3596 60.0448 27.3487 60.1779 27.3715C60.311 27.3944 60.4351 27.4501 60.5373 27.5329C60.7418 27.6971 60.8318 27.9682 60.7705 28.2164L53.4559 56.9215C53.4271 57.0328 53.3695 57.1359 53.2883 57.2218C53.207 57.3076 53.1044 57.3736 52.9895 57.414C52.8747 57.4532 52.7514 57.4657 52.6302 57.4504C52.509 57.4351 52.3937 57.3924 52.2941 57.3262L38.4873 46.9484L50.8091 36.6316C50.8866 36.563 50.936 36.4713 50.9487 36.3723C50.9613 36.2733 50.9366 36.1732 50.8786 36.0895C50.8161 36.008 50.7249 35.9496 50.621 35.9245C50.5171 35.8994 50.407 35.9091 50.31 35.952L32.0032 44.7758L23.1136 41.748C22.973 41.697 22.852 41.608 22.7659 41.4923C22.6799 41.3767 22.6329 41.2397 22.6309 41.0989Z" fill="#04B7F3"/>
</svg>
