<svg width="90" height="64" viewBox="0 0 90 64" fill="none" xmlns="http://www.w3.org/2000/svg">
<path d="M75.225 0H14.775C10.8745 0.0580812 7.1501 1.63338 4.39174 4.39174C1.63338 7.1501 0.0580812 10.8745 0 14.775L0 48.975C0.0580812 52.8755 1.63338 56.5999 4.39174 59.3583C7.1501 62.1166 10.8745 63.6919 14.775 63.75H75.225C79.1255 63.6919 82.8499 62.1166 85.6083 59.3583C88.3666 56.5999 89.9419 52.8755 90 48.975V14.775C89.9419 10.8745 88.3666 7.1501 85.6083 4.39174C82.8499 1.63338 79.1255 0.0580812 75.225 0ZM62.025 31.875L36.6375 48.225C36.3408 48.4307 35.9859 48.5359 35.625 48.525C35.3109 48.5266 35.0014 48.4492 34.725 48.3C34.4317 48.1351 34.1871 47.8956 34.0159 47.6059C33.8447 47.3162 33.753 46.9865 33.75 46.65V14.175C33.753 13.8385 33.8447 13.5088 34.0159 13.2191C34.1871 12.9293 34.4317 12.6899 34.725 12.525C35.0131 12.3494 35.3439 12.2566 35.6813 12.2566C36.0186 12.2566 36.3494 12.3494 36.6375 12.525L62.025 28.7625C62.2882 28.9325 62.5045 29.1657 62.6543 29.4408C62.8042 29.7159 62.8827 30.0242 62.8827 30.3375C62.8827 30.6508 62.8042 30.9591 62.6543 31.2342C62.5045 31.5093 62.2882 31.7425 62.025 31.9125V31.875Z" fill="black"/>
</svg>
