<svg width="90" height="64" viewBox="0 0 90 64" fill="none" xmlns="http://www.w3.org/2000/svg">
<path d="M75.225 0.125H14.775C10.8745 0.183081 7.1501 1.75838 4.39174 4.51674C1.63338 7.2751 0.0580812 10.9995 0 14.9L0 49.1C0.0580812 53.0005 1.63338 56.7249 4.39174 59.4833C7.1501 62.2416 10.8745 63.8169 14.775 63.875H75.225C79.1255 63.8169 82.8499 62.2416 85.6083 59.4833C88.3666 56.7249 89.9419 53.0005 90 49.1V14.9C89.9419 10.9995 88.3666 7.2751 85.6083 4.51674C82.8499 1.75838 79.1255 0.183081 75.225 0.125ZM62.025 32L36.6375 48.35C36.3408 48.5557 35.9859 48.6609 35.625 48.65C35.3109 48.6516 35.0014 48.5742 34.725 48.425C34.4317 48.2601 34.1871 48.0206 34.0159 47.7309C33.8447 47.4412 33.753 47.1115 33.75 46.775V14.3C33.753 13.9635 33.8447 13.6338 34.0159 13.3441C34.1871 13.0543 34.4317 12.8149 34.725 12.65C35.0131 12.4744 35.3439 12.3816 35.6813 12.3816C36.0186 12.3816 36.3494 12.4744 36.6375 12.65L62.025 28.8875C62.2882 29.0575 62.5045 29.2907 62.6543 29.5658C62.8042 29.8409 62.8827 30.1492 62.8827 30.4625C62.8827 30.7758 62.8042 31.0841 62.6543 31.3592C62.5045 31.6343 62.2882 31.8675 62.025 32.0375V32Z" fill="#F30606"/>
</svg>
